<svg xmlns="http://www.w3.org/2000/svg" width="312" height="200" fill="none" viewBox="0 0 312 200">
    <path fill="#CEEBFF" fill-opacity=".3" d="M87.301 135.9C48.49 112.932 26.611 66.773 55.376 35.32c34.707-37.965 97.802 45.007 142.676-4.072 22.772-24.909 112.846 19.154 49.596 88.349-28.765 31.437-93.766 55.71-160.347 16.303z"/>
    <path fill="#2978AE" d="M256.943 59.658c.016-.065.016-.065 0 0l-65.157-18.736c-1.221-.358-2.49.358-2.848 1.579l-24.003 83.523c-.358 1.22.358 2.49 1.579 2.848l69.762 20.055c1.221.358 2.49-.358 2.848-1.579l22.473-78.216-4.654-9.474z" opacity=".1"/>
    <path fill="#2978AE" d="M189.426 124.005l-71.26-9.327c-.895-.114-1.513-.928-1.399-1.823l11.44-87.544c.114-.895.927-1.514 1.822-1.4l71.26 9.328c.895.114 1.514.928 1.4 1.823l-11.44 87.543c-.114.879-.944 1.514-1.823 1.4z"/>
    <path fill="#CEEBFF" d="M165.983 127.3l-71.211 9.735c-.895.114-1.71-.505-1.84-1.4l-11.96-87.478c-.114-.896.505-1.71 1.4-1.84l71.211-9.734c.895-.114 1.708.505 1.838 1.4l11.961 87.478c.114.895-.521 1.709-1.399 1.839z" opacity=".6"/>
    <path fill="#3A83F9" d="M160.33 122.703l-71.211 9.734c-.895.114-1.709-.504-1.84-1.4L75.32 43.559c-.114-.895.505-1.71 1.4-1.84l71.211-9.734c.895-.113 1.708.505 1.839 1.4l11.96 87.479c.114.895-.52 1.709-1.399 1.839z"/>
    <path fill="#F9FBFF" d="M233.705 142.481l-69.779-20.055c-1.22-.358-1.92-1.628-1.578-2.848l24.003-83.523c.358-1.22 1.627-1.92 2.847-1.579l65.174 18.736 4.654 9.49-22.473 78.216c-.358 1.221-1.627 1.921-2.848 1.563z"/>
    <path fill="#EDF8F9" d="M240.28 69.165l-43.01-12.372c-.993-.293-1.579-1.334-1.286-2.327.293-.993 1.335-1.58 2.327-1.286l43.01 12.37c1.009.294 1.579 1.336 1.286 2.329-.277 1.009-1.318 1.579-2.327 1.286zM235.642 85.296l-43.01-12.371c-.993-.293-1.578-1.335-1.285-2.328.292-.993 1.334-1.58 2.327-1.286l43.009 12.371c1.009.293 1.579 1.335 1.286 2.328-.277 1.01-1.318 1.579-2.327 1.286zM231.216 100.728l-43.01-12.372c-.993-.293-1.579-1.334-1.286-2.327.293-.993 1.335-1.58 2.327-1.286l43.01 12.37c1.009.294 1.579 1.336 1.286 2.329-.277.993-1.318 1.562-2.327 1.286zM208.254 112.367l-24.881-7.163c-.993-.293-1.579-1.335-1.286-2.328.293-.993 1.335-1.579 2.327-1.286l24.882 7.163c1.009.293 1.578 1.335 1.285 2.328-.276.993-1.318 1.562-2.327 1.286z"/>
    <path fill="#CEEBFF" d="M254.372 53.212l4.654 9.49-5.24-1.514c-.927-.26-1.464-1.237-1.171-2.165.7-2.344 1.904-6.316 1.757-5.811z"/>
    <path fill="#EDF8F9" d="M151.673 131.395l-22.848-77.044-8.901-5.42c-.017-.049-.017-.065 0 0L55.726 67.976c-1.204.358-1.887 1.628-1.53 2.816l24.41 82.286c.358 1.204 1.628 1.888 2.816 1.53l68.721-20.396c1.204-.359 1.888-1.612 1.53-2.817z" opacity=".6"/>
    <path fill="#CEEBFF" d="M141.99 129.068l-68.721 20.397c-1.205.358-2.474-.326-2.816-1.53l-24.41-82.286c-.357-1.205.326-2.474 1.53-2.816l64.198-19.045 8.901 5.42 22.848 77.044c.358 1.188-.326 2.458-1.53 2.816z"/>
    <path fill="#EDF8F9" d="M108.516 64.541L66.157 77.124c-.992.293-2.017-.276-2.31-1.253-.293-.993.276-2.018 1.253-2.311l42.358-12.567c.993-.293 2.018.276 2.311 1.253.293.96-.26 2.002-1.253 2.295zM113.235 80.429L70.877 92.995c-.993.293-2.018-.276-2.311-1.253-.293-.993.276-2.019 1.253-2.312l42.359-12.566c.992-.293 2.018.277 2.31 1.253.293.993-.276 2.019-1.253 2.312zM117.727 95.616l-42.36 12.567c-.992.293-2.017-.277-2.31-1.253-.293-.993.277-2.019 1.253-2.312l42.359-12.567c.993-.293 2.018.277 2.311 1.254.293.993-.261 2.018-1.253 2.311zM104.806 117.51l-24.524 7.276c-.992.293-2.017-.276-2.31-1.253-.293-.993.276-2.019 1.253-2.312l24.523-7.276c.993-.293 2.018.277 2.311 1.254.293.993-.26 2.018-1.253 2.311z"/>
    <path fill="#F9FBFF" d="M111.771 43.77l8.901 5.421-5.158 1.53c-.911.277-1.872-.26-2.132-1.172-.667-2.344-1.774-6.283-1.611-5.778z"/>
    <path fill="#FABC2A" d="M121.502 100.679c-.016.016-.032.016-.065.032l3.857 6.56 6.672-3.939c-2.165-3.597-6.835-4.802-10.464-2.653z"/>
    <path fill="#3A83F9" d="M124.155 110.901l-4.654-7.895c-4.345 2.605-5.777 8.237-3.206 12.616 2.587 4.395 8.267 5.86 12.66 3.272 2.051-1.205 3.45-3.077 4.117-5.177l-8.917-2.816z"/>
    <path fill="#EDF8F9" d="M134.065 104.911c-.016-.016-.032-.049-.032-.065l-7.209 4.249 8.022 2.62c.684-2.197.489-4.672-.781-6.804z"/>
    <path fill="#EDF8F9" d="M225.428 121.103c-8.543-8.044-21.985-7.642-30.028.904-7.469 7.933-7.644 20.063-.816 28.203-.157.117-.314.234-.459.371l-2.402 2.546c-2.306-.825-5.055-.71-4.988 1.547.044 1.555-4.276 4.537-4.276 4.537-1.956 2.073-1.848 5.336.227 7.277 2.072 1.956 5.335 1.848 7.275-.228 0 0 2.721-4.492 4.275-4.537 2.024-.065 2.085-2.778 1.206-5.037l2.444-2.587c.148-.152.248-.315.348-.477 8.53 6.33 20.632 5.419 28.097-2.498 8.04-8.53 7.64-21.976-.903-30.021z" opacity=".6"/>
    <path fill="#C78D05" d="M188.642 157.282c-1.028-.976-1.092-2.601-.112-3.646l7.789-8.283c.977-1.028 2.602-1.092 3.646-.112 1.028.977 1.092 2.602.112 3.646l-7.79 8.283c-.996 1.041-2.617 1.089-3.645.112z"/>
    <path fill="#775403" d="M184.877 161.276c-2.072-1.956-2.164-5.216-.227-7.277 0 0 4.32-2.981 4.275-4.536-.089-3.11 5.216-2.165 7.275-.228 2.073 1.956 3.017 7.204.227 7.277-1.554.045-4.275 4.536-4.275 4.536-1.94 2.077-5.199 2.169-7.275.228z"/>
    <path fill="url(#paint0_linear)" d="M209.668 147.741c9.057 1.868 17.915-3.962 19.784-13.022 1.868-9.06-3.959-17.919-13.017-19.788-9.057-1.868-17.914 3.962-19.783 13.023-1.869 9.06 3.959 17.919 13.016 19.787z" opacity=".6"/>
    <path fill="#FABC2A" fill-rule="evenodd" d="M233.85 135.626c-2.37 11.49-13.603 18.884-25.089 16.515-11.487-2.369-18.878-13.604-16.508-25.095 2.37-11.49 13.603-18.884 25.09-16.515 11.487 2.37 18.877 13.605 16.507 25.095zm-4.398-.907c-1.869 9.06-10.727 14.89-19.784 13.022-9.057-1.868-14.885-10.727-13.016-19.787 1.869-9.06 10.726-14.891 19.783-13.022 9.058 1.868 14.885 10.727 13.017 19.787z" clip-rule="evenodd"/>
    <path fill="#fff" d="M225.558 134.458c1.483-.162 2.475-2.221 2.216-4.598-.259-2.377-1.671-4.173-3.154-4.011-1.484.162-2.476 2.22-2.217 4.597.259 2.378 1.671 4.173 3.155 4.012z"/>
    <path fill="#C78D05" d="M193.381 157.562c1.007-1.255 1.188-2.783.403-3.413-.785-.631-2.238-.125-3.245 1.13-1.008 1.255-1.188 2.783-.404 3.413.785.631 2.238.125 3.246-1.13z"/>
    <path fill="#FEA29A" d="M205.521 130.631l6.205-.682.255-5.748c.029-.542.146-.95.442-1.255.617-.654 1.52-.601 2.119-.045.473.447.598.971.549 1.609l-.491 5.201 5.188-.742c.6-.092 1.168-.025 1.587.361.625.594.706 1.492.153 2.076-.302.337-.67.427-1.078.476l-5.915.641-.264 6.112c-.032.559-.146.951-.441 1.255-.617.654-1.536.598-2.12.045-.473-.446-.613-.974-.542-1.641l.477-5.536-5.5.81c-.578.064-1.169.025-1.6-.38-.613-.575-.674-1.485-.141-2.056.318-.334.68-.475 1.117-.501z"/>
    <path fill="#FABC2A" d="M240.037 108.094c-1.237 1.465-6.151 5.437-7.29 4.476-1.14-.96 1.952-6.495 3.189-7.943 1.237-1.465 3.141-1.872 4.28-.912 1.123.96 1.041 2.93-.179 4.379zM249.834 118.072c-1.091.391-4.915 1.009-5.224.147-.309-.847 3.011-2.833 4.101-3.24 1.09-.39 2.229-.032 2.539.814.325.863-.326 1.872-1.416 2.279zM228.093 99.385c-.212 1.14-1.611 4.753-2.506 4.59-.895-.162-.928-4.02-.733-5.176.212-1.14 1.107-1.937 1.986-1.774.911.162 1.464 1.22 1.253 2.36z"/>
    <defs>
        <linearGradient id="paint0_linear" x1="224.657" x2="195.245" y1="125.026" y2="141.042" gradientUnits="userSpaceOnUse">
            <stop stop-color="#EDF8F9"/>
            <stop offset=".169" stop-color="#E7F6FA"/>
            <stop offset="1" stop-color="#CEEBFF"/>
        </linearGradient>
    </defs>
</svg>
